<svg width="48" height="49" viewBox="0 0 48 49" fill="none" xmlns="http://www.w3.org/2000/svg">
<g clip-path="url(#clip0_1_387)">
<path d="M24 48.25C37.1168 48.25 47.75 37.6168 47.75 24.5C47.75 11.3832 37.1168 0.75 24 0.75C10.8832 0.75 0.25 11.3832 0.25 24.5C0.25 37.6168 10.8832 48.25 24 48.25Z" fill="#F7B733" fill-opacity="0.1" stroke="#F7B733" stroke-width="0.5"/>
<g filter="url(#filter0_d_1_387)">
<path d="M24 32.5C28.4183 32.5 32 28.9183 32 24.5C32 20.0817 28.4183 16.5 24 16.5C19.5817 16.5 16 20.0817 16 24.5C16 28.9183 19.5817 32.5 24 32.5Z" fill="#F7B733"/>
<path d="M24 31.5C27.866 31.5 31 28.366 31 24.5C31 20.634 27.866 17.5 24 17.5C20.134 17.5 17 20.634 17 24.5C17 28.366 20.134 31.5 24 31.5Z" stroke="white" stroke-width="2"/>
</g>
</g>
<defs>
<filter id="filter0_d_1_387" x="10" y="12.5" width="28" height="28" filterUnits="userSpaceOnUse" color-interpolation-filters="sRGB">
<feFlood flood-opacity="0" result="BackgroundImageFix"/>
<feColorMatrix in="SourceAlpha" type="matrix" values="0 0 0 0 0 0 0 0 0 0 0 0 0 0 0 0 0 0 127 0" result="hardAlpha"/>
<feOffset dy="2"/>
<feGaussianBlur stdDeviation="3"/>
<feColorMatrix type="matrix" values="0 0 0 0 0.596078 0 0 0 0 0.596078 0 0 0 0 0.65098 0 0 0 0.25 0"/>
<feBlend mode="multiply" in2="BackgroundImageFix" result="effect1_dropShadow_1_387"/>
<feBlend mode="normal" in="SourceGraphic" in2="effect1_dropShadow_1_387" result="shape"/>
</filter>
<clipPath id="clip0_1_387">
<rect width="48" height="48" fill="white" transform="translate(0 0.5)"/>
</clipPath>
</defs>
</svg>
