<svg width="56" height="73" viewBox="0 0 56 73" fill="none" xmlns="http://www.w3.org/2000/svg">
<path d="M27.8767 0C12.5139 0 0 12.5139 0 27.8767C0 32.182 1.78464 36.765 4.23595 41.5102C6.68727 46.2559 9.89039 51.125 13.0781 55.5357C19.4535 64.3564 25.8077 71.3905 25.8077 71.3905C26.0691 71.68 26.3883 71.9113 26.7447 72.0696C27.1011 72.228 27.4867 72.3098 27.8767 72.3098C28.2667 72.3098 28.6523 72.228 29.0087 72.0696C29.3651 71.9113 29.6843 71.68 29.9457 71.3905C29.9457 71.3905 36.2999 64.3564 42.6753 55.5357C45.863 51.125 49.0662 46.2559 51.5175 41.5102C53.9688 36.765 55.7534 32.182 55.7534 27.8767C55.7534 12.5139 43.2396 0 27.8767 0ZM27.8767 5.57534C40.2264 5.57534 50.1781 15.5268 50.1781 27.8767C50.1781 30.4999 48.8266 34.5896 46.5737 38.9512C44.3208 43.3122 41.2517 48.0015 38.1671 52.2688C33.032 59.3741 29.4575 63.2834 27.8767 65.0747C26.2959 63.2834 22.7215 59.3741 17.5863 52.2688C14.5017 48.0015 11.4326 43.3122 9.17972 38.9512C6.92684 34.5896 5.57534 30.4999 5.57534 27.8767C5.57534 15.5268 15.527 5.57534 27.8767 5.57534ZM27.8767 13.9384C21.7514 13.9384 16.726 18.964 16.726 25.089C16.726 31.2147 21.7514 36.2397 27.8767 36.2397C34.0021 36.2397 39.0274 31.2147 39.0274 25.089C39.0274 18.964 34.0021 13.9384 27.8767 13.9384ZM27.8767 19.5137C30.9889 19.5137 33.4521 21.9769 33.4521 25.089C33.4521 28.2012 30.9889 30.6644 27.8767 30.6644C24.7645 30.6644 22.3014 28.2012 22.3014 25.089C22.3014 21.9769 24.7645 19.5137 27.8767 19.5137Z" fill="#F7B733"/>
<path d="M27.8767 5.57532C15.5269 5.57532 5.57531 15.5267 5.57531 27.8767C5.57531 30.4999 6.9268 34.5896 9.17968 38.9512C11.4326 43.3122 14.5017 48.0015 17.5863 52.2688C22.7214 59.374 26.2959 63.2833 27.8767 65.0747C29.4575 63.2833 33.0319 59.374 38.1671 52.2688C41.2517 48.0015 44.3208 43.3122 46.5737 38.9512C48.8266 34.5896 50.1781 30.4999 50.1781 27.8767C50.1781 15.5267 40.2264 5.57532 27.8767 5.57532ZM27.8767 13.9383C34.002 13.9383 39.0274 18.9639 39.0274 25.089C39.0274 31.2146 34.002 36.2397 27.8767 36.2397C21.7513 36.2397 16.726 31.2146 16.726 25.089C16.726 18.9639 21.7513 13.9383 27.8767 13.9383Z" fill="#F7B733"/>
</svg>
